<svg xmlns="http://www.w3.org/2000/svg" width="800" height="800" viewBox="0 0 800 800"><rect width="100%" height="100%" fill="#DDDDDD"/><path fill="#999999" d="M274.875 342.085h6.97q3.16 0 5.5-.79 2.35-.78 3.86-2.17 1.52-1.39 2.26-3.3.75-1.91.75-4.19 0-4.57-3.01-7.02t-9.19-2.45h-7.14zm20.67 9.3 15.02 22.16h-10.08q-2.87 0-4.15-2.24l-12.62-19.22q-.7-1.07-1.55-1.53t-2.51-.46h-4.78v23.45h-11.16v-60.01h18.3q6.1 0 10.48 1.27 4.38 1.26 7.18 3.54 2.8 2.29 4.13 5.46 1.33 3.18 1.33 6.99 0 3.03-.9 5.73-.89 2.7-2.57 4.9t-4.15 3.86-5.62 2.61q1.08.63 1.99 1.48t1.66 2.01m28.01-4.03h19.34q0-1.99-.56-3.75-.56-1.77-1.68-3.09-1.12-1.33-2.84-2.1t-4.01-.77q-4.44 0-6.99 2.53-2.55 2.54-3.26 7.18m26.15 6.19h-26.36q.25 3.28 1.17 5.66.91 2.39 2.4 3.94 1.5 1.56 3.55 2.33 2.06.77 4.55.77t4.29-.59q1.81-.58 3.16-1.28 1.34-.71 2.36-1.29t1.97-.58q1.29 0 1.91.96l2.95 3.73q-1.7 1.99-3.82 3.34t-4.42 2.16-4.69 1.14-4.63.33q-4.44 0-8.26-1.47-3.81-1.47-6.64-4.36-2.82-2.88-4.44-7.14-1.61-4.25-1.61-9.85 0-4.36 1.41-8.2t4.04-6.68q2.64-2.84 6.44-4.5 3.79-1.66 8.57-1.66 4.02 0 7.42 1.28 3.41 1.29 5.86 3.76 2.44 2.47 3.83 6.06t1.39 8.19q0 2.33-.49 3.14-.5.81-1.91.81m40.38-22.58h8.09l-16.89 42.58h-9.3l-16.89-42.58h8.47q1.16 0 1.93.54t1.01 1.37l8.22 22.74q.67 1.99 1.16 3.9.5 1.91.88 3.82.41-1.91.91-3.82t1.2-3.9l8.38-22.74q.3-.83 1.04-1.37.75-.54 1.79-.54m21.62 16.39h19.34q0-1.99-.56-3.75-.56-1.77-1.68-3.09-1.12-1.33-2.85-2.1-1.72-.77-4-.77-4.44 0-6.99 2.53-2.56 2.54-3.26 7.18m26.14 6.19h-26.35q.25 3.28 1.16 5.66.92 2.39 2.41 3.94 1.49 1.56 3.55 2.33 2.05.77 4.54.77t4.3-.59q1.8-.58 3.15-1.28 1.35-.71 2.37-1.29 1.01-.58 1.97-.58 1.28 0 1.91.96l2.94 3.73q-1.7 1.99-3.81 3.34-2.12 1.35-4.42 2.16-2.31.81-4.69 1.14-2.39.33-4.63.33-4.44 0-8.26-1.47t-6.64-4.36q-2.82-2.88-4.44-7.14-1.62-4.25-1.62-9.85 0-4.36 1.41-8.2t4.05-6.68q2.63-2.84 6.43-4.5t8.57-1.66q4.03 0 7.43 1.28 3.4 1.29 5.85 3.76t3.84 6.06 1.39 8.19q0 2.33-.5 3.14t-1.91.81m10.21-41.67h10.25v61.67h-10.25zm43 50.67v-7.18q-4.44.21-7.47.77t-4.86 1.43-2.61 2.04q-.79 1.16-.79 2.53 0 2.7 1.6 3.86 1.59 1.16 4.17 1.16 3.15 0 5.45-1.14 2.31-1.14 4.51-3.47m-21.67-22.37-1.82-3.27q7.34-6.73 17.68-6.73 3.73 0 6.68 1.23 2.94 1.22 4.98 3.4 2.03 2.18 3.09 5.21t1.06 6.64v26.89h-4.65q-1.45 0-2.24-.44-.79-.43-1.25-1.76l-.91-3.07q-1.62 1.45-3.15 2.55-1.54 1.1-3.2 1.85t-3.55 1.14-4.17.39q-2.7 0-4.98-.72-2.28-.73-3.94-2.18t-2.57-3.61q-.92-2.16-.92-5.02 0-1.62.54-3.22t1.77-3.05q1.22-1.45 3.17-2.74t4.8-2.24q2.84-.95 6.61-1.56 3.78-.6 8.64-.72v-2.49q0-4.28-1.83-6.33t-5.27-2.05q-2.49 0-4.13.58t-2.88 1.3q-1.25.73-2.27 1.31-1.01.58-2.26.58-1.08 0-1.82-.56-.75-.56-1.21-1.31m50.34-6.64.63 4.82q1.99-3.82 4.73-6t6.47-2.18q2.95 0 4.73 1.29l-.66 7.68q-.21.74-.6 1.05-.4.32-1.06.32-.63 0-1.85-.21t-2.39-.21q-1.7 0-3.03.5-1.32.5-2.38 1.43t-1.87 2.26-1.51 3.03v26.23h-10.25v-42.58h6.01q1.58 0 2.2.56.63.56.83 2.01m-301.97 79.6h8.42v60.01h-9.83v-38.76q0-2.32.25-5.02l-18.14 34.07q-1.29 2.45-3.94 2.45h-1.58q-2.65 0-3.94-2.45l-18.34-34.2q.12 1.37.2 2.7.09 1.33.09 2.45v38.76h-9.84v-60.01h8.43q.74 0 1.28.04t.98.21q.43.17.79.54.35.37.68 1l17.97 33.32q.71 1.33 1.31 2.74t1.18 2.9q.58-1.53 1.2-2.96.63-1.43 1.33-2.76l17.72-33.24q.33-.63.71-1 .37-.37.81-.54.43-.17.97-.21t1.29-.04m28.26 33.82h19.34q0-1.99-.56-3.75-.56-1.77-1.68-3.09-1.12-1.33-2.84-2.1-1.73-.77-4.01-.77-4.44 0-6.99 2.53-2.55 2.54-3.26 7.18m26.14 6.19h-26.35q.25 3.28 1.16 5.66.92 2.39 2.41 3.94 1.5 1.56 3.55 2.33t4.54.77 4.3-.58q1.8-.59 3.15-1.29 1.35-.71 2.37-1.29t1.97-.58q1.29 0 1.91.96l2.95 3.73q-1.71 1.99-3.82 3.34-2.12 1.35-4.42 2.16-2.31.81-4.69 1.14-2.39.33-4.63.33-4.44 0-8.26-1.47t-6.64-4.36q-2.82-2.88-4.44-7.14-1.62-4.25-1.62-9.85 0-4.36 1.41-8.2 1.42-3.84 4.05-6.68 2.64-2.84 6.43-4.5 3.8-1.66 8.57-1.66 4.03 0 7.43 1.28 3.4 1.29 5.85 3.76t3.84 6.06 1.39 8.19q0 2.33-.5 3.14-.49.81-1.91.81m36.52-22.58h10.26v42.58h-6.27q-2.03 0-2.57-1.87l-.71-3.4q-2.61 2.66-5.77 4.29-3.15 1.64-7.43 1.64-3.48 0-6.16-1.18t-4.5-3.34q-1.83-2.16-2.76-5.12-.94-2.97-.94-6.54v-27.06h10.25v27.06q0 3.9 1.81 6.04 1.81 2.13 5.42 2.13 2.65 0 4.98-1.18 2.32-1.18 4.39-3.26zm65.04-17.43v38.68q0 5.06-1.25 9.13-1.24 4.07-3.71 6.93t-6.17 4.4q-3.69 1.53-8.59 1.53-2.24 0-4.4-.27-2.15-.27-4.52-.85.12-1.66.29-3.32t.29-3.32q.13-.91.73-1.47t1.72-.56q.71 0 1.85.29t2.88.29q2.37 0 4.19-.68 1.83-.69 3.05-2.18 1.23-1.5 1.85-3.88.62-2.39.62-5.79v-38.93zm30 16.77q4.73 0 8.61 1.53 3.88 1.54 6.64 4.36t4.25 6.89q1.5 4.07 1.5 9.09 0 5.06-1.5 9.13-1.49 4.06-4.25 6.93-2.76 2.86-6.64 4.4-3.88 1.53-8.61 1.53-4.77 0-8.67-1.53-3.9-1.54-6.66-4.4-2.76-2.87-4.28-6.93-1.51-4.07-1.51-9.13 0-5.02 1.51-9.09 1.52-4.07 4.28-6.89t6.66-4.36q3.9-1.53 8.67-1.53m0 35.98q5.31 0 7.86-3.57 2.56-3.57 2.56-10.46t-2.56-10.5q-2.55-3.61-7.86-3.61-5.4 0-7.99 3.63t-2.59 10.48 2.59 10.44 7.99 3.59m44.4-15.07q1.91 0 3.32-.52 1.42-.51 2.35-1.43.93-.91 1.41-2.2.48-1.28.48-2.82 0-3.15-1.89-5t-5.67-1.85q-3.77 0-5.66 1.85t-1.89 5q0 1.5.48 2.78.48 1.29 1.41 2.22.93.94 2.37 1.45 1.43.52 3.29.52m11.58 24.24q0-1.25-.74-2.03-.75-.79-2.04-1.23-1.28-.43-3.01-.64-1.72-.21-3.65-.31-1.93-.11-3.98-.19-2.06-.08-4.01-.33-1.7.95-2.76 2.24-1.05 1.29-1.05 2.99 0 1.12.56 2.09.56.98 1.78 1.68 1.22.71 3.17 1.1 1.96.4 4.78.4 2.86 0 4.94-.44 2.07-.43 3.42-1.2t1.97-1.83.62-2.3m-2.03-43.04h12.24v3.82q0 1.83-2.2 2.24l-3.82.71q.88 2.2.88 4.81 0 3.16-1.27 5.71t-3.51 4.33q-2.24 1.79-5.29 2.76-3.05.98-6.58.98-1.24 0-2.4-.12-1.16-.13-2.28-.34-2 1.21-2 2.7 0 1.29 1.19 1.89 1.18.6 3.13.85t4.44.31 5.1.27q2.62.21 5.11.73t4.44 1.64 3.13 3.05q1.19 1.93 1.19 4.96 0 2.82-1.39 5.47-1.4 2.66-4.03 4.74-2.64 2.07-6.47 3.34-3.84 1.26-8.74 1.26-4.81 0-8.38-.93-3.57-.94-5.94-2.49-2.36-1.56-3.53-3.59-1.16-2.04-1.16-4.23 0-2.99 1.81-5.01 1.8-2.01 4.96-3.21-1.7-.87-2.7-2.33-1-1.45-1-3.81 0-.96.36-1.98.35-1.01 1.03-2.01.69-.99 1.73-1.89 1.03-.89 2.44-1.59-3.23-1.75-5.08-4.65-1.85-2.91-1.85-6.81 0-3.15 1.27-5.7 1.27-2.56 3.53-4.36 2.26-1.81 5.35-2.76 3.09-.96 6.74-.96 2.74 0 5.15.56t4.4 1.64m41.21 30.13v-7.18q-4.44.21-7.47.77t-4.86 1.43q-1.82.87-2.61 2.04-.79 1.16-.79 2.53 0 2.7 1.6 3.86t4.17 1.16q3.15 0 5.46-1.14 2.3-1.14 4.5-3.47m-21.66-22.37-1.83-3.27q7.35-6.73 17.68-6.73 3.73 0 6.68 1.23 2.95 1.22 4.98 3.4t3.09 5.21 1.06 6.64v26.89h-4.65q-1.45 0-2.24-.44-.79-.43-1.24-1.76l-.92-3.07q-1.61 1.45-3.15 2.55t-3.2 1.85-3.54 1.14q-1.89.39-4.17.39-2.7 0-4.98-.72-2.29-.73-3.95-2.18t-2.57-3.61-.91-5.02q0-1.62.54-3.22t1.76-3.05 3.17-2.74q1.96-1.28 4.8-2.24 2.84-.95 6.62-1.56 3.77-.6 8.63-.72v-2.49q0-4.28-1.83-6.33-1.82-2.05-5.27-2.05-2.49 0-4.13.58t-2.88 1.3q-1.25.73-2.26 1.31-1.02.58-2.26.58-1.08 0-1.83-.56t-1.2-1.31m68.01 20.75v-19.09q-1.74-2.11-3.79-2.98-2.06-.88-4.42-.88-2.33 0-4.19.88-1.87.87-3.2 2.63-1.33 1.77-2.03 4.48-.71 2.72-.71 6.42 0 3.73.6 6.32.61 2.6 1.73 4.24t2.73 2.36q1.62.73 3.62.73 3.19 0 5.43-1.33t4.23-3.78m0-49.05h10.26v61.67h-6.27q-2.03 0-2.57-1.87l-.88-4.11q-2.57 2.95-5.91 4.78-3.34 1.82-7.78 1.82-3.49 0-6.39-1.45-2.91-1.45-5-4.21-2.1-2.76-3.24-6.83t-1.14-9.29q0-4.74 1.29-8.8 1.28-4.07 3.69-7.06t5.77-4.67 7.55-1.68q3.57 0 6.1 1.12t4.52 3.03zm39.22 18.43q4.73 0 8.61 1.53 3.88 1.54 6.64 4.36t4.26 6.89q1.49 4.07 1.49 9.09 0 5.06-1.49 9.13-1.5 4.06-4.26 6.93-2.76 2.86-6.64 4.4-3.88 1.53-8.61 1.53-4.77 0-8.67-1.53-3.9-1.54-6.66-4.4-2.76-2.87-4.28-6.93-1.51-4.07-1.51-9.13 0-5.02 1.51-9.09 1.52-4.07 4.28-6.89t6.66-4.36q3.9-1.53 8.67-1.53m0 35.98q5.31 0 7.87-3.57 2.55-3.57 2.55-10.46t-2.55-10.5q-2.56-3.61-7.87-3.61-5.39 0-7.99 3.63-2.59 3.63-2.59 10.48t2.59 10.44q2.6 3.59 7.99 3.59m37.89-32.75.62 4.82q2-3.82 4.74-6 2.73-2.18 6.47-2.18 2.95 0 4.73 1.29l-.66 7.68q-.21.74-.61 1.05-.39.32-1.05.32-.63 0-1.85-.21t-2.39-.21q-1.7 0-3.03.5-1.32.5-2.38 1.43t-1.87 2.26-1.51 3.03v26.23h-10.26v-42.58h6.02q1.58 0 2.2.56t.83 2.01"/></svg>